<?xml version="1.0" encoding="UTF-8" standalone="no" ?>
<!DOCTYPE svg PUBLIC "-//W3C//DTD SVG 1.1//EN" "http://www.w3.org/Graphics/SVG/1.1/DTD/svg11.dtd">
<svg xmlns="http://www.w3.org/2000/svg" xmlns:xlink="http://www.w3.org/1999/xlink" version="1.1" width="550" height="250" viewBox="0 0 550 250" xml:space="preserve">
<g transform="matrix(1 0 0 1 422.8234370999 124.9999859088)" id="mBriZKvSBVM-TEBt7i50U"  >
<path style="stroke: none; stroke-width: 1; stroke-dasharray: none; stroke-linecap: butt; stroke-dashoffset: 0; stroke-linejoin: miter; stroke-miterlimit: 4; fill: rgb(0,0,0); fill-rule: nonzero; opacity: 1;"  transform=" translate(-443.756, -326.595)" d="M 333.422 444.881 L 333.422 444.881 Q 326.961 444.881 322.488 440.408 Q 318.015 435.935 318.015 427.983 L 318.015 427.983 Q 318.015 412.576 341.871 402.636 L 341.871 402.636 Q 352.805 398.66 360.757 391.453 Q 368.709 384.247 376.661 376.792 L 376.661 376.792 L 500.414 266.458 Q 495.941 267.452 490.971 267.452 L 490.971 267.452 Q 468.606 267.452 452.702 262.73 Q 436.798 258.009 425.615 253.536 Q 414.433 249.063 404.99 249.063 L 404.99 249.063 Q 386.601 249.063 379.892 258.506 Q 373.182 267.949 372.685 281.368 L 372.685 281.368 L 360.757 280.871 Q 362.745 250.057 379.892 231.171 Q 397.038 212.285 420.397 212.285 L 420.397 212.285 Q 434.81 212.285 445.247 218.497 Q 455.684 224.71 465.127 232.662 Q 474.57 240.614 484.51 246.826 Q 494.45 253.039 507.869 253.039 L 507.869 253.039 Q 513.336 253.039 515.324 251.299 Q 517.312 249.56 519.797 245.087 L 519.797 245.087 Q 528.246 231.171 534.458 219.74 Q 540.671 208.309 554.09 208.309 L 554.09 208.309 Q 559.557 208.309 564.527 212.036 Q 569.497 215.764 569.497 223.219 L 569.497 223.219 Q 569.497 233.656 560.551 241.608 Q 551.605 249.56 540.174 255.027 Q 528.743 260.494 521.288 263.476 L 521.288 263.476 L 372.188 396.175 Q 378.649 393.193 386.104 391.453 Q 393.559 389.714 402.008 389.714 L 402.008 389.714 Q 417.912 389.714 431.828 394.932 Q 445.744 400.151 459.163 405.369 Q 472.582 410.588 486.001 410.588 L 486.001 410.588 Q 495.941 410.588 504.142 401.642 Q 512.342 392.696 512.342 375.301 L 512.342 375.301 Q 512.342 372.816 512.093 370.082 Q 511.845 367.349 511.348 364.367 L 511.348 364.367 L 524.767 362.876 Q 525.264 366.852 525.513 370.828 Q 525.761 374.804 525.761 378.78 L 525.761 378.78 Q 525.761 402.139 518.306 416.8 Q 510.851 431.462 499.172 438.171 Q 487.492 444.881 474.57 444.881 L 474.57 444.881 Q 459.66 444.881 448.726 438.668 Q 437.792 432.456 429.094 424.504 Q 420.397 416.552 411.7 410.339 Q 403.002 404.127 392.068 404.127 L 392.068 404.127 Q 379.146 404.127 371.442 410.339 Q 363.739 416.552 358.769 424.504 Q 353.799 432.456 348.084 438.668 Q 342.368 444.881 333.422 444.881 Z" stroke-linecap="round" />
</g>
<g transform="matrix(1 0 0 1 148.4219379085 124.9999879085)" id="3w0nxe5Uvy_bsKGuDrvRn"  >
<path style="stroke: none; stroke-width: 1; stroke-dasharray: none; stroke-linecap: butt; stroke-dashoffset: 0; stroke-linejoin: miter; stroke-miterlimit: 4; fill: rgb(0,0,0); fill-rule: nonzero; opacity: 1;"  transform=" translate(-169.9675, -329.577)" d="M 260.173 437.923 L 75.786 437.923 L 72.307 427.983 L 222.898 233.159 L 186.617 233.159 Q 158.785 233.159 138.408 238.377 Q 118.031 243.596 105.357 258.257 Q 92.684 272.919 87.217 301.248 L 87.217 301.248 L 75.786 301.248 L 86.72 256.518 L 92.187 221.231 L 264.149 221.231 L 267.628 230.674 L 116.54 425.498 L 170.216 425.498 Q 192.581 425.498 210.224 420.776 Q 227.868 416.055 239.796 401.89 Q 251.724 387.726 255.203 359.397 L 255.203 359.397 L 266.634 359.397 L 260.67 411.582 L 260.173 437.923 Z" stroke-linecap="round" />
</g>
</svg>