<?xml version="1.0" encoding="UTF-8" standalone="no" ?>
<!DOCTYPE svg PUBLIC "-//W3C//DTD SVG 1.1//EN" "http://www.w3.org/Graphics/SVG/1.1/DTD/svg11.dtd">
<svg xmlns="http://www.w3.org/2000/svg" xmlns:xlink="http://www.w3.org/1999/xlink" version="1.1" width="640" height="640" viewBox="0 0 640 640" xml:space="preserve">
<g transform="matrix(4.4132543925 0 0 4.4132543925 319.7998833723 300.9994196601)" id="w0dEFSCQGxGKZwmRbTBIe"  >
<path style="stroke: none; stroke-width: 1; stroke-dasharray: none; stroke-linecap: butt; stroke-dashoffset: 0; stroke-linejoin: miter; stroke-miterlimit: 4; fill: rgb(0,0,0); fill-rule: nonzero; opacity: 1;"  transform=" translate(-247.36, -339.959)" d="M 184.312 407.551 L 184.312 407.551 Q 180.62 407.551 178.064 404.995 Q 175.508 402.439 175.508 397.895 L 175.508 397.895 Q 175.508 389.091 189.14 383.411 L 189.14 383.411 Q 195.388 381.139 199.932 377.021 Q 204.476 372.903 209.02 368.643 L 209.02 368.643 L 279.736 305.595 Q 277.18 306.163 274.34 306.163 L 274.34 306.163 Q 261.56 306.163 252.472 303.465 Q 243.384 300.767 236.994 298.211 Q 230.604 295.655 225.208 295.655 L 225.208 295.655 Q 214.7 295.655 210.866 301.051 Q 207.032 306.447 206.748 314.115 L 206.748 314.115 L 199.932 313.831 Q 201.068 296.223 210.866 285.431 Q 220.664 274.639 234.012 274.639 L 234.012 274.639 Q 242.248 274.639 248.212 278.189 Q 254.176 281.739 259.572 286.283 Q 264.968 290.827 270.648 294.377 Q 276.328 297.927 283.996 297.927 L 283.996 297.927 Q 287.12 297.927 288.256 296.933 Q 289.392 295.939 290.812 293.383 L 290.812 293.383 Q 295.64 285.431 299.19 278.899 Q 302.74 272.367 310.408 272.367 L 310.408 272.367 Q 313.532 272.367 316.372 274.497 Q 319.212 276.627 319.212 280.887 L 319.212 280.887 Q 319.212 286.851 314.1 291.395 Q 308.988 295.939 302.456 299.063 Q 295.924 302.187 291.664 303.891 L 291.664 303.891 L 206.464 379.719 Q 210.156 378.015 214.416 377.021 Q 218.676 376.027 223.504 376.027 L 223.504 376.027 Q 232.592 376.027 240.544 379.009 Q 248.496 381.991 256.164 384.973 Q 263.832 387.955 271.5 387.955 L 271.5 387.955 Q 277.18 387.955 281.866 382.843 Q 286.552 377.731 286.552 367.791 L 286.552 367.791 Q 286.552 366.371 286.41 364.809 Q 286.268 363.247 285.984 361.543 L 285.984 361.543 L 293.652 360.691 Q 293.936 362.963 294.078 365.235 Q 294.22 367.507 294.22 369.779 L 294.22 369.779 Q 294.22 383.127 289.96 391.505 Q 285.7 399.883 279.026 403.717 Q 272.352 407.551 264.968 407.551 L 264.968 407.551 Q 256.448 407.551 250.2 404.001 Q 243.952 400.451 238.982 395.907 Q 234.012 391.363 229.042 387.813 Q 224.072 384.263 217.824 384.263 L 217.824 384.263 Q 210.44 384.263 206.038 387.813 Q 201.636 391.363 198.796 395.907 Q 195.956 400.451 192.69 404.001 Q 189.424 407.551 184.312 407.551 Z" stroke-linecap="round" />
</g>
<g transform="matrix(1 0 0 1 -139.2389178082 323.8547808219)" id="mQhObHN_BHsdjhfrOcnNp"  >
<path style="stroke: none; stroke-width: 1; stroke-dasharray: none; stroke-linecap: butt; stroke-dashoffset: 0; stroke-linejoin: miter; stroke-miterlimit: 4; fill: rgb(0,0,0); fill-rule: nonzero; opacity: 1;"  transform=" translate(-91.583, -341.663)" d="M 143.129 403.575 L 37.765 403.575 L 35.777 397.895 L 121.829 286.567 L 101.097 286.567 Q 85.193 286.567 73.549 289.549 Q 61.905 292.531 54.663 300.909 Q 47.421 309.287 44.297 325.475 L 44.297 325.475 L 37.765 325.475 L 44.013 299.915 L 47.137 279.751 L 145.401 279.751 L 147.389 285.147 L 61.053 396.475 L 91.725 396.475 Q 104.505 396.475 114.587 393.777 Q 124.669 391.079 131.485 382.985 Q 138.301 374.891 140.289 358.703 L 140.289 358.703 L 146.821 358.703 L 143.413 388.523 L 143.129 403.575 Z" stroke-linecap="round" />
</g>
</svg>