<?xml version="1.0" encoding="UTF-8" standalone="no" ?>
<!DOCTYPE svg PUBLIC "-//W3C//DTD SVG 1.1//EN" "http://www.w3.org/Graphics/SVG/1.1/DTD/svg11.dtd">
<svg xmlns="http://www.w3.org/2000/svg" xmlns:xlink="http://www.w3.org/1999/xlink" version="1.1" width="640" height="640" viewBox="0 0 640 640" xml:space="preserve">
<g transform="matrix(5.1148020596 0 0 5.1148020596 320 320.3324959804)" id="mQhObHN_BHsdjhfrOcnNp"  >
<path style="stroke: none; stroke-width: 1; stroke-dasharray: none; stroke-linecap: butt; stroke-dashoffset: 0; stroke-linejoin: miter; stroke-miterlimit: 4; fill: rgb(0,0,0); fill-rule: nonzero; opacity: 1;"  transform=" translate(-91.583, -341.663)" d="M 143.129 403.575 L 37.765 403.575 L 35.777 397.895 L 121.829 286.567 L 101.097 286.567 Q 85.193 286.567 73.549 289.549 Q 61.905 292.531 54.663 300.909 Q 47.421 309.287 44.297 325.475 L 44.297 325.475 L 37.765 325.475 L 44.013 299.915 L 47.137 279.751 L 145.401 279.751 L 147.389 285.147 L 61.053 396.475 L 91.725 396.475 Q 104.505 396.475 114.587 393.777 Q 124.669 391.079 131.485 382.985 Q 138.301 374.891 140.289 358.703 L 140.289 358.703 L 146.821 358.703 L 143.413 388.523 L 143.129 403.575 Z" stroke-linecap="round" />
</g>
</svg>